<svg xmlns="http://www.w3.org/2000/svg" width="512" height="512" viewBox="0 0 512 512">
  <defs>
    <linearGradient id="g98" x1="0" y1="0" x2="1" y2="1">
      <stop offset="0" stop-color="#A55CFF"/>
      <stop offset="0.5" stop-color="#5865F2"/>
      <stop offset="1" stop-color="#19D3E6"/>
    </linearGradient>
  </defs>
  <g shape-rendering="crispEdges">
    <path d="M96 80 H416 V112 H448 V336 H416 V368 H288 L224 432 V368 H96 V336 H64 V112 H96 Z"
          fill="#000000"/>
    <path d="M112 96 H400 V128 H432 V320 H400 V352 H272 L240 384 V352 H112 V320 H80 V128 H112 Z"
          fill="url(#g98)"/>
    <rect x="145" y="210" width="30" height="92" fill="#171A8F"/>
    <rect x="205" y="176" width="30" height="160" fill="#171A8F"/>
    <rect x="265" y="146" width="30" height="220" fill="#171A8F"/>
    <rect x="325" y="196" width="30" height="120" fill="#171A8F"/>
    <rect x="104" y="237" width="24" height="40" fill="#171A8F"/>
    <rect x="376" y="237" width="24" height="40" fill="#171A8F"/>
  </g>
</svg>